<svg xmlns="http://www.w3.org/2000/svg" viewBox="0 0 199.19 62.22"><defs><style>.cls-1,.cls-2{fill:#c92e25;}.cls-2{font-size:24.94px;font-family:StampAct, Stamp Act;letter-spacing:0.07em;}</style></defs><title>archives-stamp</title><g id="Layer_1" data-name="Layer 1"><path class="cls-1" d="M85,65c7.15.5,14.24-.51,21.24-1.36,5.27-.57,10.5.38,15.74.58,3.25-.06,8.07-1,9.42,1.79-10.43.51-20.92.15-31.38.27-6.82-.15-13.66.32-20.46-.08A9.43,9.43,0,0,1,85,65Z" transform="translate(0 -63.48)"/><path class="cls-1" d="M40.73,65.21a65.17,65.17,0,0,1,13.32.08,3.55,3.55,0,0,1,2.16.9c-5.75.25-11.48,1.26-17.25.51-5.72.14-11.46.62-17.21.3C27.67,64.93,34.46,66.19,40.73,65.21Z" transform="translate(0 -63.48)"/><path class="cls-1" d="M136,65.81c1.34-2,5.25-1.45,7.82-1.12,4,.93,8.1.08,12.17.27,12-.06,24-.12,35.85,1.07,2.63.4,5.93,1.06,6.75,3,1.3,3.91.17,7.91.17,11.86C198.66,87,196.32,93,198,99a6.29,6.29,0,0,1,.1,2.73c-1.17,3.55.89,7.12-.08,10.7a14.9,14.9,0,0,0,.36,9.51c-4.14,2.19-9.41,3-14.53,3.53-9.51.27-19.06-.31-28.56.2-5.2-.1-10.51,0-15.53-1l3.3-.9c8-.21,16,0,23.94.46,7.29-.22,14.93-.54,21.62-2.67,3.14-2.66,2.66-6.48,2.88-9.72-.27-2.49,3.16-4.44,2.66-6.93-.9-5.41.06-10.9-.73-16.3-2.79-5.64,1.19-11.77-2.34-17.32-1.53-2-5.19-2.39-8-3.13C167.8,64.7,151.56,67.6,136,65.81Z" transform="translate(0 -63.48)"/><path class="cls-1" d="M12.76,72.71A121.58,121.58,0,0,1,25.7,72c6.14.2,12.27-.26,18.41,0-4.44,1.17-9.2,1.2-13.89,1.21C24.48,73.62,18.2,74.53,12.76,72.71Z" transform="translate(0 -63.48)"/><path class="cls-1" d="M46.71,72.92c.31-2.18,4-1.66,6.26-1.77,19.92.22,39.87-.15,59.77.33-3.14,1.5-7.16.79-10.73.92-8-.26-16,.41-24,.19-5.35-.28-10.72.11-16.07-.15C56.85,72.68,51.81,73.23,46.71,72.92Z" transform="translate(0 -63.48)"/><path class="cls-1" d="M112.7,71.37c19.44-.25,38.88,0,58.32-.21,4.9-.17,9.63,1,14.16,2.09,2.6.67,4.47,3.1,2.37,4.66-1.61,1.2-3.69,0-5.45-.33.63-1,1.21-2,1.81-3-5.78-2-12.32-1.38-18.54-2-10.46-.25-20.93.36-31.39-.1-6.74-.29-13.54.3-20.25-.2Z" transform="translate(0 -63.48)"/><path class="cls-1" d="M11.73,74.37c1.87,0,2.75.64,2.63,1.82.09,10.3-.11,20.62-.11,30.93-.05,2.78.24,5.59-.57,8.32a4,4,0,0,1-1.2-2.9c-.18-4.52.57-9.06-.5-13.54-.92-3.8,1-7.57.29-11.38C12.89,83.19,11.13,78.82,11.73,74.37Z" transform="translate(0 -63.48)"/><path class="cls-1" d="M2.08,81c.09-1.21,2-1.56,3.18-2.17-2.88,5-.37,10.22-1.59,15.32-.56,2.84.6,5.65.78,8.49H0V92.18C1.12,88.48,1.28,84.7,2.08,81Z" transform="translate(0 -63.48)"/><path class="cls-1" d="M186.06,87.24c1.61-.36,2.15,0,1.62,1.12C186.06,88.72,185.52,88.34,186.06,87.24Z" transform="translate(0 -63.48)"/><path class="cls-1" d="M186.43,95.68c.39-2.22-1.61-4.48.16-6.58.78.29,2.34.84,3.12,1.12-.11,2.58.06,5.19-.59,7.75-.89,3.32-.49,6.74-1.66,10l-2.3.7C187,104.46,185.74,100,186.43,95.68Z" transform="translate(0 -63.48)"/><path class="cls-1" d="M2.19,103.86c1.48-.82,3.05,1,1.55,1.6C2.24,106.27.75,104.5,2.19,103.86Z" transform="translate(0 -63.48)"/><path class="cls-1" d="M2.5,116.1a26.84,26.84,0,0,1,5.87,1.09c-.72,1.21-1.46,2.42-2.23,3.62A76.18,76.18,0,0,0,14.26,123c4.12.29,8.32-.16,12.41.43s8-.31,12,.1c4.15.47,8.21-.53,12.35-.45,4.36-.1,8.63.59,13,.63,6.68.13,13.38-.33,20.05.08l1.92.95c-22,.39-44,.11-65.95.32-5.46.18-10.76-1.15-15.67-2.64C.85,121.19.92,118.16,2.5,116.1Z" transform="translate(0 -63.48)"/><path class="cls-1" d="M17.55,118c6.56,1.28,13.4.39,20.1.84,3.65.29,7.21-.5,10.85-.57A2.76,2.76,0,0,1,47.06,121a74.68,74.68,0,0,1-13.13-.51c-5.08-.31-10.22-.24-15.23-1C18.41,119.11,17.84,118.37,17.55,118Z" transform="translate(0 -63.48)"/><path class="cls-1" d="M147,118.58c3.46-.49,6.92.46,10.4.07a98.23,98.23,0,0,1,12.73-.25c-5.77,1.71-12.13.75-18.13,1.63a48.24,48.24,0,0,1-14-.7C140.93,119,144,118.89,147,118.58Z" transform="translate(0 -63.48)"/><path class="cls-1" d="M50.41,118.56c1.65-.33,2.21,0,1.68,1.12C50.45,120,49.89,119.63,50.41,118.56Z" transform="translate(0 -63.48)"/><path class="cls-1" d="M70.75,119.75c4.93-1.09,10.17-.55,15.26-.68,10.51.07,21-.24,31.53.06-3.28,1.87-7.72.66-11.58,1-6.07-.06-11.88,1.67-18,1.19A93.55,93.55,0,0,0,76,121C74,121.22,72.39,120.36,70.75,119.75Z" transform="translate(0 -63.48)"/><path class="cls-1" d="M113.71,124.4a89.23,89.23,0,0,1,19.27.52A55.15,55.15,0,0,1,113.71,124.4Z" transform="translate(0 -63.48)"/></g><g id="图层_2" data-name="图层 2"><text class="cls-2" transform="translate(21.75 43.85)">Archives</text></g></svg>