<svg id="图层_1" data-name="图层 1" xmlns="http://www.w3.org/2000/svg" viewBox="0 0 199.22 62.21"><defs><style>.cls-1{fill:#c92e25;}.cls-2{isolation:isolate;}</style></defs><title>archives-stamp</title><g id="Layer_1" data-name="Layer 1"><path class="cls-1" d="M85,1.52C92.15,2,99.24,1,106.24.16c5.27-.57,10.5.38,15.74.58,3.25-.06,8.07-1,9.42,1.79C121,3,110.48,2.68,100,2.8c-6.82-.15-13.66.32-20.46-.08A9.4,9.4,0,0,1,85,1.52Z" transform="translate(0 0.02)"/><path class="cls-1" d="M40.73,1.73a65.16,65.16,0,0,1,13.32.08,3.55,3.55,0,0,1,2.16.9C50.46,3,44.73,4,39,3.22c-5.72.14-11.46.62-17.21.3C27.67,1.45,34.46,2.71,40.73,1.73Z" transform="translate(0 0.02)"/><path class="cls-1" d="M136,2.33c1.34-2,5.25-1.45,7.82-1.12,4,.93,8.1.08,12.17.27,12-.06,24-.12,35.85,1.07,2.63.4,5.93,1.06,6.75,3,1.3,3.91.17,7.91.17,11.86-.1,6.11-2.44,12.11-.76,18.11a6.29,6.29,0,0,1,.1,2.73c-1.17,3.55.89,7.12-.08,10.7a14.9,14.9,0,0,0,.36,9.51c-4.14,2.19-9.41,3-14.53,3.53-9.51.27-19.06-.31-28.56.2-5.2-.1-10.51,0-15.53-1l3.3-.9c8-.21,16,0,23.94.46,7.29-.22,14.93-.54,21.62-2.67,3.14-2.66,2.66-6.48,2.88-9.72-.27-2.49,3.16-4.44,2.66-6.93-.9-5.41.06-10.9-.73-16.3-2.79-5.64,1.19-11.77-2.34-17.32-1.53-2-5.19-2.39-8-3.13C167.8,1.22,151.56,4.12,136,2.33Z" transform="translate(0 0.02)"/><path class="cls-1" d="M12.76,9.23A121.68,121.68,0,0,1,25.7,8.52c6.14.2,12.27-.26,18.41,0-4.44,1.17-9.2,1.2-13.89,1.21C24.48,10.14,18.2,11.05,12.76,9.23Z" transform="translate(0 0.02)"/><path class="cls-1" d="M46.71,9.44c.31-2.18,4-1.66,6.26-1.77,19.92.22,39.87-.15,59.77.33-3.14,1.5-7.16.79-10.73.92-8-.26-16,.41-24,.19-5.35-.28-10.72.11-16.07-.15C56.85,9.2,51.81,9.75,46.71,9.44Z" transform="translate(0 0.02)"/><path class="cls-1" d="M112.7,7.89c19.44-.25,38.88,0,58.32-.21,4.9-.17,9.63,1,14.16,2.09,2.6.67,4.47,3.1,2.37,4.66-1.61,1.2-3.69,0-5.45-.33.63-1,1.21-2,1.81-3-5.78-2-12.32-1.38-18.54-2-10.46-.25-20.93.36-31.39-.1-6.74-.29-13.54.3-20.25-.2Z" transform="translate(0 0.02)"/><path class="cls-1" d="M11.73,10.89c1.87,0,2.75.64,2.63,1.82.09,10.3-.11,20.62-.11,30.93-.05,2.78.24,5.59-.57,8.32a4,4,0,0,1-1.2-2.9c-.18-4.52.57-9.06-.5-13.54-.92-3.8,1-7.57.29-11.38C12.89,19.71,11.13,15.34,11.73,10.89Z" transform="translate(0 0.02)"/><path class="cls-1" d="M2.08,17.52c.09-1.21,2-1.56,3.18-2.17-2.88,5-.37,10.22-1.59,15.32-.56,2.84.6,5.65.78,8.49H0V28.7C1.12,25,1.28,21.22,2.08,17.52Z" transform="translate(0 0.02)"/><path class="cls-1" d="M186.06,23.76c1.61-.36,2.15,0,1.62,1.12C186.06,25.24,185.52,24.86,186.06,23.76Z" transform="translate(0 0.02)"/><path class="cls-1" d="M186.43,32.2c.39-2.22-1.61-4.48.16-6.58.78.29,2.34.84,3.12,1.12-.11,2.58.06,5.19-.59,7.75-.89,3.32-.49,6.74-1.66,10l-2.3.7C187,41,185.74,36.52,186.43,32.2Z" transform="translate(0 0.02)"/><path class="cls-1" d="M2.19,40.38c1.48-.82,3.05,1,1.55,1.6C2.24,42.79.75,41,2.19,40.38Z" transform="translate(0 0.02)"/><path class="cls-1" d="M2.5,52.62a26.65,26.65,0,0,1,5.87,1.09c-.72,1.21-1.46,2.42-2.23,3.62a76,76,0,0,0,8.12,2.19c4.12.29,8.32-.16,12.41.43s8-.31,12,.1,8.21-.53,12.35-.45c4.36-.1,8.63.59,13,.63,6.68.13,13.38-.33,20,.08l1.92.95c-22,.39-44,.11-65.95.32-5.46.18-10.76-1.15-15.67-2.64C.85,57.71.92,54.68,2.5,52.62Z" transform="translate(0 0.02)"/><path class="cls-1" d="M17.55,54.52c6.56,1.28,13.4.39,20.1.84,3.65.29,7.21-.5,10.85-.57a2.76,2.76,0,0,1-1.44,2.73A73.88,73.88,0,0,1,33.93,57c-5.08-.31-10.22-.24-15.23-1Z" transform="translate(0 0.02)"/><path class="cls-1" d="M147,55.1c3.46-.49,6.92.46,10.4.07a98.34,98.34,0,0,1,12.73-.25c-5.77,1.71-12.13.75-18.13,1.63a48.35,48.35,0,0,1-14-.7C140.93,55.52,144,55.41,147,55.1Z" transform="translate(0 0.02)"/><path class="cls-1" d="M50.41,55.08c1.65-.33,2.21,0,1.68,1.12C50.45,56.52,49.89,56.15,50.41,55.08Z" transform="translate(0 0.02)"/><path class="cls-1" d="M70.75,56.27c4.93-1.09,10.17-.55,15.26-.68,10.51.07,21-.24,31.53.06-3.28,1.87-7.72.66-11.58,1-6.07-.06-11.88,1.67-18,1.19a93.64,93.64,0,0,0-12-.32C74,57.74,72.39,56.88,70.75,56.27Z" transform="translate(0 0.02)"/><path class="cls-1" d="M113.71,60.92a89.35,89.35,0,0,1,19.27.52A55.21,55.21,0,0,1,113.71,60.92Z" transform="translate(0 0.02)"/></g><g id="图层_2" data-name="图层 2"><g class="cls-2"><path class="cls-1" d="M27.64,43.25a.6.6,0,0,1-.1.28c-.07.14-.11.24-.13.27h-.22c-.4,0-1,0-1.81.05s-1.41,0-1.81,0H22.1c-.23,0-.35-.18-.35-.54,0-.61.37-.91,1.1-.91l.47,0a3.76,3.76,0,0,0,.47,0,1.5,1.5,0,0,0,.88-.45c.35-.3.56-.45.65-.45a3.61,3.61,0,0,1,1.31.69C27.3,42.77,27.64,43.08,27.64,43.25Zm14.14-.37a6.58,6.58,0,0,1-.35.65,6.52,6.52,0,0,1-2,.27c-.47,0-1.17,0-2.11-.1s-1.64-.1-2.11-.1-.9-.17-.9-.52a1.63,1.63,0,0,1,.22-.71Q34.77,42,35,42q.1,0,.33.33c.15.22.26.32.32.32a1.15,1.15,0,0,0,.19-.47c.07-.28.18-.45.31-.5a1.73,1.73,0,0,0-.78-.62,5,5,0,0,1-.69-.4c-.35-.69-.82-1.73-1.41-3.15-.1-.35-.57-.61-1.4-.79a7.6,7.6,0,0,0-1.73-.2,3.89,3.89,0,0,0-2,.4,2.42,2.42,0,0,0-.72.74.77.77,0,0,1-.63.4.27.27,0,0,1-.16-.08.24.24,0,0,0-.16-.09c.05-2.18.51-3.27,1.37-3.27a9.22,9.22,0,0,1,1.15,1,3.6,3.6,0,0,0,.92.1,8.39,8.39,0,0,0,1.5-.08,1,1,0,0,0,.77-1,2.18,2.18,0,0,0,0-.42l-.47-.5v-.5a3.18,3.18,0,0,0-.28-1.25c-.21-.51-.5-.77-.85-.77a1.54,1.54,0,0,0-.59.29,1.49,1.49,0,0,1-.63.28c-.43,0-.65-.25-.65-.77,0,0,.26-.59.78-1.67a11.41,11.41,0,0,0,.84-2.07,5.53,5.53,0,0,1,.43-1,2.58,2.58,0,0,0,.32-1.05,1.37,1.37,0,0,0-.05-.4c.12,0,.26-.1.44-.36a1.25,1.25,0,0,1,.39-.44,2.83,2.83,0,0,0,.42.93.47.47,0,0,1-.27.39c.34.25.83.65,1.47,1.18a6.67,6.67,0,0,1,1.09,1.69,14.6,14.6,0,0,0,1,1.8v.67a13,13,0,0,1,.72,1.75c.17.48.4,1.06.7,1.74s.86,2.11,1.74,4.14c.29.58.75,1.64,1.4,3.17a1.28,1.28,0,0,0,.5.65A6.16,6.16,0,0,0,41.78,42.88Zm-5.39-3c0-.13-.11-.26-.32-.39a1,1,0,0,1-.28-.5c-.07-.22-.19-.33-.37-.33a.29.29,0,0,0-.33.33,4.22,4.22,0,0,0,.8,1.64C36.22,40.32,36.39,40.07,36.39,39.88Z" transform="translate(0 0.02)"/><path class="cls-1" d="M63.17,28.26a5.13,5.13,0,0,0-.24,2c0,.06-.09.14-.25.21s-.24.14-.23.19a6,6,0,0,1,.18.82,9.84,9.84,0,0,1-2.1,2,5.36,5.36,0,0,1-2.82.7c-.7,0-1,.39-1,1.17a2.08,2.08,0,0,0,.07.55q-.45,0-.45.3c0,.21.24.56.71,1s.71.79.71.94a1.58,1.58,0,0,1-.07.41,1.57,1.57,0,0,0-.08.39.61.61,0,0,0,.19.35c.13.13.19.2.19.22s-.08.17-.23.17a1.74,1.74,0,0,0,.48.6c.1,0,.22-.1.34-.3s.22-.3.27-.3a.44.44,0,0,1,.5.4.81.81,0,0,0,.58.68s0,0,0,.1a.73.73,0,0,1-.08.26.6.6,0,0,0-.09.24.86.86,0,0,0,.6.3,3,3,0,0,0,.79,1.37l-.17,0c-.15,0-.29.17-.42.5a6.87,6.87,0,0,1-1.3.22,5.07,5.07,0,0,1-1-.13,5.47,5.47,0,0,0-1-.14,3.64,3.64,0,0,0-1.64.35,1.62,1.62,0,0,1-.88-.26.9.9,0,0,1-.42-.71,1.9,1.9,0,0,1,.49-.88c.32-.41.56-.62.71-.62a.38.38,0,0,1,.21.1.38.38,0,0,0,.21.1c.27,0,.39-.57.38-1.7a.74.74,0,0,0,0-.12s-.14-.08-.42-.15-.46-.18-.53-.35a.44.44,0,0,0-.25.35,1.28,1.28,0,0,0,.24.46,1.18,1.18,0,0,1,.24.51c0,.35-.17.53-.5.53s-.75-.41-1.4-1.23a.61.61,0,0,1,.15-.47,1.16,1.16,0,0,1-.35-.32c-.16-.2-.27-.3-.32-.3a.32.32,0,0,0-.19.1.35.35,0,0,1-.19.1l0,0v-.3c.32,0,.48-.11.48-.35a3.82,3.82,0,0,0-.94-1.77c-.62-.83-1.1-1.25-1.43-1.25a1,1,0,0,0-.56.35,2.92,2.92,0,0,0-.49.58c.07.23.14.6.23,1.1,0,.21,0,.34-.1.37l-.33.05s-.07.07-.07.15a2.08,2.08,0,0,1,.47.47,2.44,2.44,0,0,1-.31.85,2.36,2.36,0,0,0-.31.92,3.68,3.68,0,0,0,.42,1.13,1.32,1.32,0,0,1-.35.77l-.37.45c0,.1.07.15.22.15a.68.68,0,0,1,.6-.45c.13,0,.29.16.48.5a7.84,7.84,0,0,0,.32.72c-.57,0-1.42,0-2.56.09s-2,.09-2.55.09a3.35,3.35,0,0,1-1.15-.18,2.23,2.23,0,0,1-.27-.37l.1-.1c.78-.19,1.15-1.15,1.12-2.9a1.74,1.74,0,0,0-.58-1.37c.27-.28.41-.44.43-.47a4.72,4.72,0,0,0-.18-1,5,5,0,0,1-.17-1A6.31,6.31,0,0,1,45.14,35a3.81,3.81,0,0,0,.13-1.2.43.43,0,0,0,.3-.15c0-.16,0-.26-.13-.29l-.35,0a11.2,11.2,0,0,0,.23-2.61c0-.4,0-1-.08-1.76l-.1-1.71c0-.09-.07-.17-.22-.26a.63.63,0,0,1-.25-.21c0-.05,0-.1.16-.15s.15-.1.14-.15a1,1,0,0,0-.16-.39.88.88,0,0,1-.17-.4.35.35,0,0,1,.18-.28c-.4-.15-.6-.37-.6-.67,0-.51.37-.77,1.12-.77a4.23,4.23,0,0,1,1.57.44l1,.44a5.54,5.54,0,0,0,1.39-.44A5.07,5.07,0,0,1,51,23.92l1.35,0c.6,0,1,0,1.35,0a43.36,43.36,0,0,1,5.61.77q0,.4.3.45a5.62,5.62,0,0,1,2.17,1.07.58.58,0,0,1,.62.35l.25.7a2,2,0,0,1,.23.77C62.88,28.23,63,28.28,63.17,28.26Zm-4.63.8a3.73,3.73,0,0,0-1.85-3.14,6.24,6.24,0,0,0-3.62-1.1c-1.58,0-2.63.41-3.16,1.22a6.55,6.55,0,0,0-.58,3.47,17.05,17.05,0,0,0,.5,3.64,2.15,2.15,0,0,0,.48.62,5.69,5.69,0,0,0,1.83.25,5.44,5.44,0,0,1,2,.35l.05,0,.15-.33a.53.53,0,0,1,.55-.3l.22,0h.2a.46.46,0,0,1,.5.32c.22-.91.62-1.37,1.2-1.37l0,.45a.7.7,0,0,0,.38.13,1.09,1.09,0,0,0,.67-.43l-.3-.3h.3a.28.28,0,0,0,.18-.25.43.43,0,0,0-.17-.28c-.1-.11-.16-.19-.16-.24a4.3,4.3,0,0,0,.45-1.32A6.78,6.78,0,0,0,58.54,29.06Z" transform="translate(0 0.02)"/><path class="cls-1" d="M83.85,29a5.35,5.35,0,0,0-.4.64c-.17.3-.34.44-.52.43l-.18,0c-.28-.31-.74-.76-1.37-1.34a.19.19,0,0,0,.18-.2l-.08-.13A12.54,12.54,0,0,1,80,27.22a2,2,0,0,0-1.45-.58l-.05-.45a6.23,6.23,0,0,0-2.81-.77,6.61,6.61,0,0,0-2.13.3c-.06,0-.09.15-.09.35a.27.27,0,0,1-.15.15,4.08,4.08,0,0,0-1.8,1.44l-.6.08a4.57,4.57,0,0,0-.95,1.42,1.07,1.07,0,0,0,0,.23.78.78,0,0,1,0,.27,1,1,0,0,1-.35.62,2.7,2.7,0,0,0-.39.55c0,.07-.2.55-.55,1.45a5,5,0,0,0-.35,1.77,3.53,3.53,0,0,0,1,2.87v.17a.62.62,0,0,1-.1.3v.07c0,.17.11.4.37.68a5.21,5.21,0,0,1,.58.65,4,4,0,0,0,1.27,1.67s0,0,0,.1l-.12.17a.54.54,0,0,0-.15.33c0,.36.23.55.8.55h.2a1.71,1.71,0,0,0,.16-.44c.08-.26.14-.39.19-.39.48,0,.89.48,1.24,1.37a3,3,0,0,1,.4-.17,1.05,1.05,0,0,0,.45-.37.09.09,0,0,1,0-.06l.07.16a.25.25,0,0,0,.23.14,2.74,2.74,0,0,1,.6-.22,1,1,0,0,0,.94.72,3.85,3.85,0,0,0,.83-.11,4.46,4.46,0,0,1,.77-.11,1.86,1.86,0,0,1,.42,0,2,2,0,0,1,.38-.65h.15a.51.51,0,0,1,.3.1,1.91,1.91,0,0,1,.74-.62,3.72,3.72,0,0,0,.8-.48l0-.45a4.75,4.75,0,0,0,1.47-1.54,2.38,2.38,0,0,0,.5-1.25,1.73,1.73,0,0,0-.07-.5c.65.05,1,.46,1,1.22,0,.15-.12.32-.34.52s-.35.31-.36.36A5.08,5.08,0,0,1,82,40.83c-.13.15-.64.68-1.54,1.6a1.45,1.45,0,0,0-.72.22l0,.3a1.79,1.79,0,0,1-.64.26,1.22,1.22,0,0,0-.66.37.4.4,0,0,0-.25-.15.55.55,0,0,0-.28.13.61.61,0,0,1-.29.14.4.4,0,0,1-.16-.06.48.48,0,0,0-.21-.06l-.18,0q-.15.07-.15.12c0,.05,0,.1.11.16s.12.09.12.12l0,0a.82.82,0,0,1-.4.1,1,1,0,0,1-.7-.45,1.65,1.65,0,0,0-.42.06q-.18.06-.15.39a4,4,0,0,0-1.1-.45.66.66,0,0,0-.22.06.7.7,0,0,1-.23.06c-.06,0-.17-.08-.33-.26s-.27-.26-.34-.26a3.39,3.39,0,0,0-.69.1,3.23,3.23,0,0,1-.68.1A1.24,1.24,0,0,1,71,43c-.26-.29-.45-.44-.56-.44l-.31,0a1.69,1.69,0,0,1-.32,0c-.06,0-.19-.18-.37-.53,0-.1-.28-.22-.7-.37a.83.83,0,0,0-.42-.17.5.5,0,0,0-.18,0,2.6,2.6,0,0,0-.74-1l-.48-.47c-.12-.12-.25-.27-.4-.45a15.81,15.81,0,0,1-1.32-3.84,8.82,8.82,0,0,1-.3-2.22,9.15,9.15,0,0,1,.54-2.73,10.46,10.46,0,0,1,1.23-2.53,10,10,0,0,1,4.24-3.52,5.54,5.54,0,0,1,.77-.3,1.33,1.33,0,0,1,.34.11,1.1,1.1,0,0,0,.41.12.59.59,0,0,0,.48-.23l0-.31c.08,0,.53-.12,1.35-.26l1.32-.23a4.84,4.84,0,0,1,.52.43,3,3,0,0,0,.68,0l.7,0a1.85,1.85,0,0,1,1,.38.38.38,0,0,0,.24-.14.38.38,0,0,1,.24-.14h0a.61.61,0,0,0,.67.54,1.45,1.45,0,0,1,.66.27,1.46,1.46,0,0,0,.59.26c.16,0,.43-.24.78-.72s.64-.72.84-.72h0a1,1,0,0,1,.81.62,2,2,0,0,1,.34,1.1,1.33,1.33,0,0,1-.25.77l-.25.4c0,.07.06.11.18.13h.22v.25a1.92,1.92,0,0,1,0,.52,4.15,4.15,0,0,0-.08.52A.94.94,0,0,0,83.85,29Z" transform="translate(0 0.02)"/><path class="cls-1" d="M103.1,23.77c0,.15.19.26.55.33s.56.18.58.35-.2.35-.6.65a3.85,3.85,0,0,0-.8.69.55.55,0,0,1,.17.45c-.38,0-.57.34-.57,1l.1.59c.07.39.1.6.1.65l0,.23a30.64,30.64,0,0,0-.17,4.41,26.91,26.91,0,0,1-.21,3.33,26.71,26.71,0,0,0-.21,3.3,11.16,11.16,0,0,0-.13,1.28,2.58,2.58,0,0,0,.13.57c.21.2.37.3.47.3a1.56,1.56,0,0,0,.51.82c.33.33.49.57.49.7s-.17.16-.5.29a1.18,1.18,0,0,0-.6.36l-.47-.45a3.06,3.06,0,0,0-.85-.07l-2,.17a2.79,2.79,0,0,1-1.52-.35c-.07,0-.09-.16-.08-.47,0-.6.05-.8.05-.6,0-.07-.05-.12-.16-.16s-.16-.09-.16-.14a.87.87,0,0,1,.6-1,.56.56,0,0,1-.3-.47.78.78,0,0,1,.27-.63.62.62,0,0,1-.35-.57v-.5a.43.43,0,0,0,.3-.15,1.92,1.92,0,0,1-.17-.72,1.84,1.84,0,0,1,.6-1.32l-.3-.28a3.39,3.39,0,0,1,0-.45,2.66,2.66,0,0,0-.81-1.47,2.1,2.1,0,0,0-1.36-.87,4.33,4.33,0,0,0-1.28.35,4.39,4.39,0,0,1-1.39.35,8.75,8.75,0,0,1-1.59-.21,8.19,8.19,0,0,0-1.6-.22c-.13,0-.2.06-.2.18s.17.16.5.32.51.36.52.58a.43.43,0,0,0-.17,0c-.12,0-.26.11-.44.32a1.78,1.78,0,0,1-.31.35l0,.6A1.46,1.46,0,0,0,89,37.56a1.49,1.49,0,0,0,.17.73c-.31,0-.47.15-.47.45a2,2,0,0,0,.05.4,2.83,2.83,0,0,1,0,.4,2,2,0,0,1,0,.44l-.45.48a2.71,2.71,0,0,1,.2.6.39.39,0,0,0,.45.32.46.46,0,0,0,.3-.42.48.48,0,0,0-.18-.35l.6,0c.43,0,.65.09.65.33a1.19,1.19,0,0,1-.09.37,1.24,1.24,0,0,0-.09.38,3.44,3.44,0,0,0,.75.74,1,1,0,0,1,.45.73c0,.26-.07.43-.2.5a1.39,1.39,0,0,0-.42.22,1.61,1.61,0,0,1-1.1-.3.68.68,0,0,0-.2,0,1.51,1.51,0,0,0-.5.11,1.75,1.75,0,0,1-.5.11,2.53,2.53,0,0,1-1.22-.37c-.55-.3-.82-.59-.82-.88a2.7,2.7,0,0,1,.11-.62,2.25,2.25,0,0,0,.11-.6c.09-1.86.1-3.74,0-5.64l-.12-4.86c0-1.55-.14-3.17-.33-4.86a1.68,1.68,0,0,0-.33-.69,1.4,1.4,0,0,1-.31-.68c0-.47.36-.71,1.14-.73a3.47,3.47,0,0,1,1.52.45,4.1,4.1,0,0,0,1.2.48,2,2,0,0,0,.82-.28,2.65,2.65,0,0,1,.78-.3,1.38,1.38,0,0,1,.42.1.35.35,0,0,0-.17.28.48.48,0,0,0,.11.26.54.54,0,0,1,.11.26l-1,2.32c.15,0,.28.23.38.7a3.28,3.28,0,0,1,0,.6,1.93,1.93,0,0,1-.23,1,1.81,1.81,0,0,0-.15.8c0,.24.06.51.08.82a1.4,1.4,0,0,1-.48,1.18l.33.3a.48.48,0,0,0,.21-.1.4.4,0,0,1,.24-.1l.17,0a3.41,3.41,0,0,0,.78.63l2.74.19a8.07,8.07,0,0,0,1.5-.16A6.53,6.53,0,0,0,97.44,33c.22-.17.33-.68.35-1.53,0-.64.29-1,.82-1q.18,0,.15-.3a1.76,1.76,0,0,0,.38.1c.2,0,.53-.27,1-.75a6.4,6.4,0,0,1-.38-.95.79.79,0,0,1,.19-.35.8.8,0,0,0,.19-.35l0-.05a.14.14,0,0,0-.12-.15.66.66,0,0,0-.2,0c0-.43-.09-.64-.25-.64h0a.06.06,0,0,0-.05,0c-.31,0-.46.37-.45,1.1a2.62,2.62,0,0,1-1.49,1.57,4.79,4.79,0,0,0,.2-1c0-.36-.15-.55-.4-.55a.6.6,0,0,1-.1-.25c0-.21.23-.45.7-.69a3.56,3.56,0,0,1-1-2.62s.1-.09.31-.18.3-.18.29-.3c.53,0,1.46-.06,2.79-.1A10.92,10.92,0,0,0,103.1,23.77ZM88.59,36.14c0-.36-.27-.55-.75-.55s-.81.25-.8.68.31.65.88.65a.6.6,0,0,0,.47-.25A.85.85,0,0,0,88.59,36.14Zm.3,6q0-.93-.6-.9c-.22,0-.42.21-.6.62a2.16,2.16,0,0,0-.25.93c0,.15.13.22.4.22a1.89,1.89,0,0,0,.56-.21c.29-.14.45-.25.46-.31A3.45,3.45,0,0,0,88.89,42.13ZM88,33.9a.34.34,0,0,0-.32.22c0,.09,0,.21,0,.38s.15.42.39.42a.8.8,0,0,0,.73-.5C88.44,34.07,88.18,33.9,88,33.9Zm11.43-7.28c0-.55-.24-.82-.68-.8s-.57.08-.57.2c0,.66.27,1,.77,1C99.3,27,99.45,26.87,99.44,26.62ZM99.89,37q0-.15-.3-.15t-.18-.15c0-.22-.07-.33-.17-.33l-.53.25a1.25,1.25,0,0,0-.4.4v.52c0,.37.12.55.35.55s.27,0,.3-.1v-.37a.79.79,0,0,0,.25,0C99.66,37.67,99.89,37.45,99.89,37Zm.1,2.29c0-.1,0-.27,0-.51a1.91,1.91,0,0,1,0-.56.61.61,0,0,0-.5-.28.87.87,0,0,0-.68.4,1.29,1.29,0,0,0-.32.78c0,.56.33.84.93.82a.76.76,0,0,0,.65-.65Zm.07,2c0-.12-.1-.25-.3-.4l-.42-.33-.13,0c-.1,0-.26.16-.47.5,0,.11.11.16.32.15v.92c0,.46.07.7.2.7A5.13,5.13,0,0,0,100.06,41.31Zm.55-8.58c0-.37-.15-.54-.4-.53q-.15,0-.15.45l-.17.1-.25.1-.18,0a1.35,1.35,0,0,1-.22.59,1.84,1.84,0,0,0-.23.5.8.8,0,0,0,.7.5c.28,0,.43-.16.43-.5a0,0,0,0,0,0-.05,1.07,1.07,0,0,1-.3.13,0,0,0,0,1,0,0s.14-.22.43-.51A1.19,1.19,0,0,0,100.61,32.73Z" transform="translate(0 0.02)"/><path class="cls-1" d="M114.18,38.89a11.51,11.51,0,0,1-.53,3.26.08.08,0,0,1-.07,0l-.33-.38a1.19,1.19,0,0,0-.52-.42c-.12.25-.27.37-.47.37s-.19-.09-.37-.28-.29-.29-.36-.29l-.17,0c0,.07-.43.6-1.12,1.6-.49.68-.95,1-1.4,1a1.82,1.82,0,0,1-.8-.2.68.68,0,0,1-.47-.6c0,.17,0,.25.07.25s.27-.38.55-1.15a8,8,0,0,0,.62-2.24,1.54,1.54,0,0,0-.17-.67,3.86,3.86,0,0,1-.1-1.38,9.12,9.12,0,0,1-.17-1.22c0-.43.11-1.26.2-2.49,0-.35,0-1.16,0-2.42a20.78,20.78,0,0,0-.5-5.84,4.14,4.14,0,0,0-.47-.74,1.66,1.66,0,0,1-.3-.93.32.32,0,0,1,.2-.32,9.33,9.33,0,0,1,1.72.3,5.5,5.5,0,0,0,1.79.15q0,.16.3.3a1.05,1.05,0,0,1,.33.17.3.3,0,0,1,.3-.2,1.33,1.33,0,0,1,.3.05.44.44,0,0,1,0,.13,3.49,3.49,0,0,1-.27.37,1,1,0,0,0-.28.57,1.23,1.23,0,0,0,.14.6c.11.24.24.35.39.35a1,1,0,0,0,.6-.35l-.3-.3a3.37,3.37,0,0,1,1.08-.55c.34,0,.52.54.54,1.6,0-1.2-.07-.51-.14,2.05l-.16,6.23a11.14,11.14,0,0,0,.13,1.77A14,14,0,0,1,114.18,38.89Zm-.4,4q0,.45-1,.45a.43.43,0,0,1-.35-.15q0-.3-.15-.3a1.24,1.24,0,0,0,.54-.2,1.19,1.19,0,0,1,.55-.2.44.44,0,0,1,.28.1A.43.43,0,0,0,113.78,42.93Z" transform="translate(0 0.02)"/><path class="cls-1" d="M135.9,25.29a.77.77,0,0,1-.65.73,4.09,4.09,0,0,0-.95.32A1,1,0,0,0,134,27a3.2,3.2,0,0,1-.13.77c-.74,1.67-2,4.53-3.66,8.61-.17.4-.5,1.16-1,2.29a11.71,11.71,0,0,0-.77,2.42c-.14.33-.27.7-.4,1.1q-.15,0-.33.45a1.43,1.43,0,0,1-.3.63,1.58,1.58,0,0,0-.29.64h-.4a.39.39,0,0,1-.4-.23c-.4-.84-.82-1.84-1.25-3a5,5,0,0,0-.27-1,2.06,2.06,0,0,0-.55-.85l0-.65-.77-1.37a17.65,17.65,0,0,1-1-2.17c-.43-1.2-.71-1.93-.82-2.22-.62-1.43-1-2.39-1.2-2.89l-.85-2.39a5.13,5.13,0,0,0-1.42-2.12.25.25,0,0,0-.17-.08.92.92,0,0,0-.41.18,1.23,1.23,0,0,1-.39.17c-.13,0-.25-.16-.35-.42a1.75,1.75,0,0,1-.13-.58l.08-.17a10.07,10.07,0,0,1,1.9-.15,14.32,14.32,0,0,1,2.6.6,8.78,8.78,0,0,1,2.33.84,1.39,1.39,0,0,1,.29.41,1.22,1.22,0,0,1,.19.46,2.55,2.55,0,0,1-.07.44,1.83,1.83,0,0,0-.07.44c0,.08.44,1.18,1.33,3.28.94,2.27,1.47,3.57,1.58,3.9.24.65.62,1,1.15,1a1,1,0,0,1,.35.08,1.12,1.12,0,0,0,.35.07l.17-.05a2.18,2.18,0,0,0,.72-1l.4-1.17c.27-.5.53-1,.8-1.62a4.34,4.34,0,0,1-.05-.52l.12-.23a3.35,3.35,0,0,1,.47-.6c0-.16,0-.42,0-.77a.75.75,0,0,1,.1-.35,10.32,10.32,0,0,0,.62-2.11,10.92,10.92,0,0,1,.65-2.15.79.79,0,0,1,.85-.4,6.26,6.26,0,0,1,1.27.22C135.58,24.94,135.9,25.11,135.9,25.29Z" transform="translate(0 0.02)"/><path class="cls-1" d="M138.34,43.38a3.69,3.69,0,0,0,1-1.14,3.66,3.66,0,0,0,.23-1.49c0-.28,0-.71.08-1.28s.07-1,.07-1.27a6.41,6.41,0,0,0-.09-.89,5.66,5.66,0,0,1-.11-.89v-.9a6.89,6.89,0,0,0,0-.92,12.64,12.64,0,0,0,.2-2.1v-.18a2.25,2.25,0,0,1-.37-.57,1.73,1.73,0,0,1,.15-.3,1.08,1.08,0,0,0,.15-.48,2.08,2.08,0,0,0-.06-.42,2.47,2.47,0,0,1-.07-.43,8.86,8.86,0,0,1,.37-3.05.78.78,0,0,0,.08-.32,2.71,2.71,0,0,0-.13-.69,2.84,2.84,0,0,1-.14-.69,0,0,0,0,0-.05-.05.93.93,0,0,0-.24.07.87.87,0,0,1-.28.08c-.17,0-.25-.14-.25-.42a1,1,0,0,1,.13-.47c.09-.17.2-.26.32-.26a.59.59,0,0,1,.31.13,1.68,1.68,0,0,0,.26.15l.17-.1,0,.45c-.2,0-.3.05-.3.17l.32.27a1.83,1.83,0,0,1,1.75-.82s.09.08.16.23.15.22.24.22l.07,0c.12,0,.16-.13.13-.33a1.12,1.12,0,0,0,.5-.19,1.31,1.31,0,0,1,.4-.18.89.89,0,0,1,.42.16.94.94,0,0,0,.37.16.1.1,0,0,0,.1-.05,1.82,1.82,0,0,1,.7-.35,11.28,11.28,0,0,1,1.72-.15,15.79,15.79,0,0,0,1.72-.05q1.55-.15,2.67-.15c2,0,3.34.47,4,1.4a11,11,0,0,1,1.14,4.39l-.09,0q-.1,0-.18.18c0,.12-.09.17-.12.17s-.26-.23-.53-.7a20.2,20.2,0,0,0-1.94-2.79.41.41,0,0,0-.4-.1c-.2,0-.33,0-.38,0a1.48,1.48,0,0,0-1.54-1c-.34,0-.84,0-1.51-.11a14.07,14.07,0,0,0-1.51-.12,9.93,9.93,0,0,0-2.17.3q-1.62.38-1.8.9a24,24,0,0,0-1,7.23,3.61,3.61,0,0,0,.06.54,2.81,2.81,0,0,1,.07.54,2.11,2.11,0,0,1-.07.48,2.77,2.77,0,0,0-.06.49V38a4,4,0,0,1-.16.95,4,4,0,0,0-.16.94c0,1,.75,1.83,2.27,2.37a10.23,10.23,0,0,0,3.56.63,6.65,6.65,0,0,0,2.92-.48,4.21,4.21,0,0,0,.94-.87,2.67,2.67,0,0,1,.91-.8q0,.3.15.3l.3,0a.3.3,0,0,0,.17-.25.63.63,0,0,0-.11-.28.51.51,0,0,1-.11-.3,2.49,2.49,0,0,1,.49-.67,1.58,1.58,0,0,0,.5-.87.82.82,0,0,0,0-.23,2.07,2.07,0,0,0,.41-.52c.21-.32.4-.47.56-.47a1,1,0,0,1,.62.32l0,.3q-.3,0-.3.15c0,.21.06.31.17.3a4.79,4.79,0,0,0-.92,2.59,2.15,2.15,0,0,1-.23.72,2.11,2.11,0,0,0-.24.65v.1c0,.05,0,.08,0,.08v0a.4.4,0,0,1,0-.15.16.16,0,0,0-.2-.12c0-.8-.21-1.2-.53-1.2a1.59,1.59,0,0,0-.79.23.65.65,0,0,0-.33.89c-.18,0-.27,0-.27.1s0,0,0,.3a.93.93,0,0,1-.33.71,1,1,0,0,1-.69.31,2.53,2.53,0,0,1-.32-.29c-.2.34-.37.52-.5.52a2.45,2.45,0,0,1-.53-.11,2.06,2.06,0,0,0-.57-.12c-.2,0-.49,0-.86.07s-.66.06-.86.06a2.38,2.38,0,0,1-.55-.06.15.15,0,0,0-.12-.07.73.73,0,0,0-.34.12.9.9,0,0,1-.29.11,6.2,6.2,0,0,1-1-.19,16.69,16.69,0,0,0-2-.11c-1.46,0-2.27,0-2.42,0s-.1,0-.21.17a.43.43,0,0,1-.29.17l-.25-.16a1.21,1.21,0,0,0-.55-.14,2.47,2.47,0,0,0-.43.07,2.34,2.34,0,0,1-.44.06H139C138.83,43.7,138.63,43.56,138.34,43.38ZM149.17,30c.1,0,.26.15.5.45a6,6,0,0,1,.39,2,5.89,5.89,0,0,1-.1.93,7,7,0,0,0-.09.94,8.46,8.46,0,0,0,0,.85c0,.38,0,.66,0,.84a3.24,3.24,0,0,1-.24,1.3.46.46,0,0,0-.22.09.4.4,0,0,1-.21.08c-.23,0-.54-.24-.92-.74a2.61,2.61,0,0,0-.82-.83c.13,0,.2,0,.2-.17s-.3-.44-.89-.77a2.29,2.29,0,0,0-1.19-.45c0-.2,0-.3-.14-.3a.9.9,0,0,0-.38.18.84.84,0,0,1-.4.19c-.26,0-.4-.21-.4-.62s.32-.67,1-.67h0l.42,0h.4a1.67,1.67,0,0,0,1.42-.87s.28-.59.75-1.62C148.58,30.27,148.87,30,149.17,30Zm5.48,13v0c0,.2-.19.3-.52.3h-.65s0-.09,0-.17a.82.82,0,0,1,0-.18c0-.21.13-.32.38-.32a.92.92,0,0,1,.43.15.94.94,0,0,0,.41.15Z" transform="translate(0 0.02)"/><path class="cls-1" d="M177.75,38.41a6.59,6.59,0,0,1-.6,1.82A3.45,3.45,0,0,1,175.6,42a21.19,21.19,0,0,1-2.17.9,9.91,9.91,0,0,0-1.09.3c-.32.31-.53.47-.63.47a13.06,13.06,0,0,0-1.39.1,13.38,13.38,0,0,1-1.4.1,17.53,17.53,0,0,1-5.41-.5c-.09,0-.62-.28-1.6-.75a6.29,6.29,0,0,0-1.45-.57c-.39,0-1,.38-1.74,1.15q0-.15-.33-.15a8.15,8.15,0,0,1-.19-1.72,7.08,7.08,0,0,1,.14-1.33c.15-.68.34-1,.55-1a1.33,1.33,0,0,1,.38.1,1,1,0,0,0,.37.1,21.93,21.93,0,0,0,3.52,3.07,8.93,8.93,0,0,0,4.51,1A14.12,14.12,0,0,0,173.26,42c1-.43,1.53-.67,1.57-.7a1.56,1.56,0,0,0,.8-1.42,2,2,0,0,0-1.27-2.07,24,24,0,0,0-8.06-1.24c0-.2-.09-.31-.32-.33q.38,0-.6,0a6.42,6.42,0,0,1-2-.77c-.7-.22-1.13-.36-1.3-.43a2.22,2.22,0,0,1-1-.82,8.44,8.44,0,0,0-1.4-1.4s0-.06,0-.15a4,4,0,0,1,.34-1.33,4.26,4.26,0,0,0,.33-1.29c0-.13-.1-.19-.32-.17a1.75,1.75,0,0,1-.45.62c-.31,0-.47,0-.47-.15a4.57,4.57,0,0,1,.62-2.47A10.92,10.92,0,0,1,162,25.07a6.75,6.75,0,0,1,2.64-.87,16.15,16.15,0,0,1,2.82-.3,11.19,11.19,0,0,1,6.16,1.79,1.56,1.56,0,0,0,.85.23,2.82,2.82,0,0,0,1.55-.77c.25,0,.45.19.62.57a2.39,2.39,0,0,1,.2.92q0,.27-.06.84c0,.37-.06.65-.06.83s.08.19.24.3.25.19.25.23c0-.12-.11.27-.34,1.17-.12.45-.27.67-.45.67a1.1,1.1,0,0,1-.33-.05c-1.44-2.31-2.27-3.46-2.47-3.46s-.15.07-.15.22l-.25-.55c-.11-.25-.24-.37-.37-.37a13.47,13.47,0,0,0-1.25-.95,9.18,9.18,0,0,0-2.19-.62,12.59,12.59,0,0,0-2.3-.25,7.58,7.58,0,0,0-2.49.47,3.39,3.39,0,0,0-2,1.35,6.32,6.32,0,0,1-.57.77,1.46,1.46,0,0,0-.27.92,3.19,3.19,0,0,0,.47,1.62,4.41,4.41,0,0,0,1.15,1.33,5.49,5.49,0,0,0,1.69.29q0,.21.33.48l1.17.32A54.88,54.88,0,0,0,172,33.42,8,8,0,0,1,175,34.67s0,0,0,.08a2.48,2.48,0,0,1,0,.33,1.69,1.69,0,0,0,0,.34c0,.35.12.52.35.5a.43.43,0,0,0,.2-.33.87.87,0,0,0-.2-.47.65.65,0,0,1,.2,0,3.11,3.11,0,0,1,1.05.49.44.44,0,0,1,0,.1c0,.07-.08.17-.24.29a1.69,1.69,0,0,0-.26.24.84.84,0,0,1,.1.26c0,.16.12.24.2.24l.18,0a.6.6,0,0,0,.15-.47.21.21,0,0,1,.12,0c.12,0,.28.17.5.5a.61.61,0,0,1-.38.55l-.72.37a1.64,1.64,0,0,1,.77,1.25c.22-.13.38-.6.48-1.4A1.69,1.69,0,0,1,177.75,38.41Z" transform="translate(0 0.02)"/></g></g></svg>